<?xml version="1.0" encoding="utf-8"?>
<svg xmlns="http://www.w3.org/2000/svg" width="404.40468749999997" height="1600">
      <path d="M18.91 877.89L18.91 877.89Q9.45 851.68 7.73 823.75L7.73 823.75Q7.30 816.88 7.30 810Q7.30 803.13 7.73 796.25L7.73 796.25Q9.45 768.32 18.91 742.11L18.91 742.11Q23.63 728.36 30.51 715.04L30.51 715.04Q55.86 667.77 100.98 638.55L100.98 638.55L102.27 638.13Q115.16 629.53 129.34 623.52L129.34 623.52L132.34 622.23L132.34 657.03L132.34 745.55L100.98 745.55L100.98 677.66Q80.35 694.84 65.74 717.62L65.74 717.62Q57.58 730.08 51.99 743.83L51.99 743.83Q41.25 769.18 39.10 796.68L39.10 796.68Q38.67 803.55 38.67 810Q38.67 816.45 39.10 823.32L39.10 823.32Q41.25 850.82 51.99 876.17L51.99 876.17Q57.58 889.92 65.74 902.38L65.74 902.38Q80.35 925.16 100.98 942.34L100.98 942.34L100.98 825.90L60.59 825.90L60.59 794.10L100.98 794.10L132.34 794.10L132.34 825.90L132.34 962.97L132.34 997.77L129.34 996.48Q120.31 992.62 112.15 987.89L112.15 987.89Q106.99 985.31 102.27 981.88L102.27 981.88L100.98 981.45Q55.86 952.23 30.51 904.96L30.51 904.96Q23.63 891.64 18.91 877.89Z M241.79 609.34L241.79 609.34L242.65 609.77L270.58 637.70L270.58 638.55L270.58 676.37L270.58 943.63L270.58 981.45L270.58 982.30L242.65 1010.23L239.22 1011.09Q223.75 1013.24 207.85 1013.24L207.85 1013.24Q204.41 1013.24 200.97 1013.24L200.97 1013.24Q188.94 1012.81 176.91 1011.09L176.91 1011.09L174.33 1010.66Q160.58 1008.09 147.26 1004.22L147.26 1004.22L145.54 1003.36L145.54 1001.64L145.54 973.28L145.54 646.72L145.54 618.36L145.54 616.64L147.26 615.78Q160.58 611.91 174.33 609.34L174.33 609.34L176.91 608.91Q188.94 607.19 200.97 606.76L200.97 606.76Q204.41 606.76 207.85 606.76L207.85 606.76Q225.04 606.76 241.79 609.34ZM176.91 641.13L176.91 641.13L176.91 978.87Q192.38 981.88 208.28 981.88L208.28 981.88Q218.16 981.88 228.04 980.59L228.04 980.59L239.22 969.41L239.22 650.59L228.04 639.41Q218.16 638.13 208.28 638.13L208.28 638.13Q192.38 638.13 176.91 641.13Z M320.31 981.23L319.45 982.09Q306.13 990.25 292.38 996.27L292.38 996.27L288.94 997.99L288.94 656.82L288.94 622.01L292.38 623.30Q295.81 625.02 299.25 626.74L299.25 626.74Q307.85 631.04 316.01 635.76L316.01 635.76Q317.73 636.62 319.45 637.91L319.45 637.91L320.31 638.34Q362.42 665.41 386.91 708.38L386.91 708.38Q389.06 711.82 390.77 714.82L390.77 714.82Q397.65 728.14 402.81 741.89L402.81 741.89L403.67 745.33L370.15 745.33L369.29 743.61Q363.70 729.86 355.54 717.40L355.54 717.40Q341.36 694.63 320.31 677.44L320.31 677.44L320.31 794.32L374.02 794.32L374.02 825.68L320.31 825.68L320.31 981.23Z" fill="#000"/>
    </svg>